<svg width="128" height="128" viewBox="0 0 128 128" fill="none" xmlns="http://www.w3.org/2000/svg">
<rect width="128" height="128" fill="black"/>
<path d="M81.7969 50.9086C84.6853 54.6844 86.2467 59.2768 86.2467 63.9965C86.2467 68.7163 84.6853 73.3087 81.7969 77.0845M96.7697 91.7605C100.489 88.1145 103.439 83.7861 105.451 79.0223C107.464 74.2586 108.5 69.1529 108.5 63.9966C108.5 58.8404 107.464 53.7347 105.451 48.9709C103.439 44.2072 100.489 39.8788 96.7697 36.2328M59.549 32.1572C59.5481 31.5495 59.3636 30.9557 59.0188 30.4507C58.6741 29.9458 58.1844 29.5522 57.6117 29.3198C57.0391 29.0874 56.409 29.0265 55.801 29.1448C55.1931 29.2631 54.6345 29.5553 54.1958 29.9846L39.1374 44.7434C38.5562 45.3165 37.8648 45.7709 37.1033 46.0802C36.3417 46.3895 35.5251 46.5475 34.7008 46.5451H23.9499C22.7697 46.5451 21.6379 47.0048 20.8033 47.8229C19.9688 48.6411 19.5 49.7507 19.5 50.9078V77.0836C19.5 78.2407 19.9688 79.3503 20.8033 80.1685C21.6379 80.9866 22.7697 81.4463 23.9499 81.4463H34.7008C35.5251 81.4439 36.3417 81.602 37.1033 81.9112C37.8648 82.2205 38.5562 82.6749 39.1374 83.248L54.1913 98.0112C54.6301 98.4422 55.1895 98.7359 55.7986 98.8549C56.4077 98.9739 57.0392 98.913 57.6129 98.6798C58.1867 98.4467 58.677 98.0518 59.0217 97.5453C59.3663 97.0387 59.5498 96.4432 59.549 95.8343V32.1572Z" stroke="white" stroke-width="7" stroke-linecap="round" stroke-linejoin="round"/>
</svg>
